<svg width="200" height="200" viewBox="0 0 200 200" fill="none" xmlns="http://www.w3.org/2000/svg">
<ellipse cx="163.817" cy="57.1429" rx="13.8173" ry="14.2857" fill="#FFC700"/>
<ellipse cx="42.3888" cy="50" rx="13.8173" ry="14.2857" fill="#FFC700"/>
<ellipse cx="105.77" cy="34.2856" rx="13.8173" ry="14.2857" fill="#FFC700"/>
<path d="M178.571 56.2209C178.574 53.4973 177.902 50.8113 176.61 48.3792C175.317 45.9471 173.441 43.837 171.131 42.2187C168.822 40.6005 166.144 39.5195 163.313 39.0627C160.482 38.606 157.578 38.7863 154.834 39.5892C152.091 40.392 149.584 41.795 147.517 43.6849C145.449 45.5749 143.879 47.8991 142.932 50.4702C141.985 53.0414 141.688 55.7876 142.064 58.4876C142.441 61.1875 143.481 63.7658 145.101 66.0147L127.56 86.5091L111.788 52.122C114.664 49.8255 116.727 46.7455 117.696 43.2996C118.665 39.8537 118.494 36.2085 117.205 32.8581C115.917 29.5077 113.573 26.6142 110.492 24.5697C107.412 22.5251 103.743 21.4286 99.9827 21.4286C96.2228 21.4286 92.5538 22.5251 89.4731 24.5697C86.3924 26.6142 84.0489 29.5077 82.7603 32.8581C81.4717 36.2085 81.3003 39.8537 82.2694 43.2996C83.2384 46.7455 85.3011 49.8255 88.1778 52.122L72.4443 86.4905L54.9038 65.9961C57.157 62.8644 58.2695 59.1201 58.0717 55.3333C57.8739 51.5465 56.3768 47.9248 53.8083 45.0197C51.2398 42.1146 47.7407 40.0854 43.8439 39.2411C39.9471 38.3968 35.8661 38.7837 32.2226 40.3428C28.579 41.9019 25.5725 44.5478 23.6609 47.8776C21.7493 51.2073 21.0375 55.0385 21.6337 58.7875C22.2299 62.5365 24.1016 65.998 26.9637 68.6447C29.8257 71.2914 33.5213 72.9783 37.4876 73.4486L46.9683 127.411C47.3759 129.731 48.6378 131.839 50.5296 133.359C52.4215 134.879 54.8205 135.714 57.3001 135.714H142.705C145.184 135.714 147.583 134.879 149.475 133.359C151.367 131.839 152.629 129.731 153.036 127.411L162.511 73.4734C166.944 72.9482 171.023 70.9051 173.981 67.7282C176.938 64.5512 178.571 60.4591 178.571 56.2209ZM100.002 31.3792C101.556 31.3792 103.075 31.8162 104.367 32.6351C105.66 33.454 106.667 34.618 107.261 35.9797C107.856 37.3415 108.011 38.8399 107.708 40.2856C107.405 41.7312 106.657 43.0591 105.558 44.1014C104.459 45.1436 103.059 45.8534 101.535 46.141C100.011 46.4285 98.4313 46.281 96.9957 45.7169C95.56 45.1528 94.3329 44.1976 93.4696 42.9721C92.6063 41.7465 92.1455 40.3056 92.1455 38.8317C92.1455 36.8551 92.9733 34.9596 94.4467 33.562C95.9202 32.1643 97.9186 31.3792 100.002 31.3792ZM31.9092 56.2209C31.9092 54.7469 32.37 53.306 33.2334 52.0805C34.0967 50.8549 35.3238 49.8997 36.7594 49.3356C38.1951 48.7716 39.7749 48.624 41.2989 48.9115C42.823 49.1991 44.223 49.9089 45.3218 50.9511C46.4206 51.9934 47.1689 53.3213 47.4721 54.7669C47.7752 56.2126 47.6196 57.711 47.025 59.0728C46.4303 60.4346 45.4233 61.5985 44.1312 62.4174C42.8391 63.2363 41.3201 63.6734 39.7661 63.6734C37.6824 63.6734 35.6839 62.8882 34.2105 61.4906C32.737 60.093 31.9092 58.1974 31.9092 56.2209ZM160.239 63.6734C158.685 63.6734 157.166 63.2363 155.874 62.4174C154.582 61.5985 153.574 60.4346 152.98 59.0728C152.385 57.711 152.23 56.2126 152.533 54.7669C152.836 53.3213 153.584 51.9934 154.683 50.9511C155.782 49.9089 157.182 49.1991 158.706 48.9115C160.23 48.624 161.81 48.7716 163.245 49.3356C164.681 49.8997 165.908 50.8549 166.771 52.0805C167.635 53.306 168.096 54.7469 168.096 56.2209C168.096 58.1974 167.268 60.093 165.794 61.4906C164.321 62.8882 162.322 63.6734 160.239 63.6734Z" fill="#FFC700"/>
<path d="M184.766 54.6875C184.77 51.3478 184.01 48.0514 182.543 45.0511C181.076 42.0507 178.942 39.4261 176.303 37.3783C173.665 35.3306 170.593 33.9141 167.322 33.2375C164.052 32.5609 160.67 32.6421 157.436 33.4749C154.202 34.3077 151.201 35.87 148.664 38.042C146.127 40.2141 144.121 42.9381 142.8 46.0054C141.479 49.0727 140.878 52.4018 141.042 55.7374C141.207 59.0731 142.133 62.3268 143.75 65.249L129.49 82.7901L115.6 50.8594C118.621 47.7854 120.668 43.8872 121.482 39.6542C122.295 35.4212 121.84 31.042 120.174 27.0667C118.507 23.0914 115.703 19.697 112.114 17.3099C108.525 14.9227 104.311 13.6492 100 13.6492C95.6895 13.6492 91.475 14.9227 87.8858 17.3099C84.2966 19.697 81.4927 23.0914 79.8261 27.0667C78.1595 31.042 77.7046 35.4212 78.5184 39.6542C79.3322 43.8872 81.3785 47.7854 84.4004 50.8594L70.5166 82.7901L56.25 65.249C58.4668 61.2282 59.3623 56.6118 58.8095 52.0537C58.2567 47.4957 56.2837 43.2271 53.17 39.8528C50.0563 36.4785 45.9598 34.1694 41.4607 33.2528C36.9617 32.3361 32.2884 32.8584 28.1027 34.7455C23.917 36.6327 20.4312 39.789 18.1392 43.7675C15.8471 47.7459 14.865 52.3447 15.332 56.9123C15.799 61.4799 17.6914 65.7848 20.7411 69.2171C23.7908 72.6494 27.8432 75.0351 32.3242 76.0361L41.8945 133.499C42.4201 136.701 44.0704 139.61 46.5489 141.704C49.0274 143.798 52.1715 144.939 55.416 144.922H144.584C147.828 144.939 150.973 143.798 153.451 141.704C155.93 139.61 157.58 136.701 158.105 133.499L167.676 76.0361C172.523 74.9431 176.855 72.2347 179.96 68.3555C183.066 64.4762 184.76 59.6566 184.766 54.6875ZM162.891 49.2188C163.972 49.2188 165.03 49.5395 165.929 50.1404C166.828 50.7413 167.529 51.5954 167.943 52.5947C168.357 53.594 168.465 54.6936 168.254 55.7544C168.043 56.8152 167.522 57.7897 166.758 58.5545C165.993 59.3193 165.018 59.8402 163.958 60.0512C162.897 60.2622 161.797 60.1539 160.798 59.74C159.799 59.3261 158.944 58.6251 158.344 57.7258C157.743 56.8265 157.422 55.7691 157.422 54.6875C157.422 53.2371 157.998 51.8461 159.024 50.8205C160.049 49.7949 161.44 49.2188 162.891 49.2188ZM100 30.0781C101.082 30.0781 102.139 30.3989 103.038 30.9998C103.938 31.6007 104.639 32.4548 105.052 33.4541C105.466 34.4534 105.575 35.5529 105.364 36.6138C105.153 37.6746 104.632 38.6491 103.867 39.4139C103.102 40.1787 102.128 40.6995 101.067 40.9106C100.006 41.1216 98.9065 41.0133 97.9072 40.5994C96.9079 40.1854 96.0538 39.4845 95.4529 38.5852C94.852 37.6858 94.5313 36.6285 94.5313 35.5469C94.5313 34.0965 95.1074 32.7055 96.133 31.6799C97.1586 30.6543 98.5496 30.0781 100 30.0781ZM37.1094 49.2188C38.191 49.2188 39.2483 49.5395 40.1476 50.1404C41.047 50.7413 41.7479 51.5954 42.1618 52.5947C42.5758 53.594 42.6841 54.6936 42.473 55.7544C42.262 56.8152 41.7412 57.7897 40.9764 58.5545C40.2115 59.3193 39.2371 59.8402 38.1763 60.0512C37.1154 60.2622 36.0159 60.1539 35.0166 59.74C34.0173 59.3261 33.1632 58.6251 32.5623 57.7258C31.9614 56.8265 31.6406 55.7691 31.6406 54.6875C31.6406 53.2371 32.2168 51.8461 33.2424 50.8205C34.268 49.7949 35.659 49.2188 37.1094 49.2188ZM142.267 128.516H57.7334L50.2959 83.9317L66.292 103.612C67.0611 104.558 68.0314 105.321 69.1323 105.845C70.2332 106.369 71.4371 106.641 72.6563 106.641C73.0289 106.639 73.4011 106.614 73.7705 106.565C75.1648 106.374 76.4864 105.827 77.6082 104.977C78.73 104.127 79.6142 103.002 80.1758 101.712L99.4395 57.4219H100H100.561L119.824 101.712C120.386 103.002 121.27 104.127 122.392 104.977C123.514 105.827 124.835 106.374 126.229 106.565C126.599 106.614 126.971 106.639 127.344 106.641C128.563 106.641 129.767 106.369 130.868 105.845C131.969 105.321 132.939 104.558 133.708 103.612L149.704 83.9317L142.267 128.516Z" fill="black"/>
</svg>
