<svg width="42" height="42" viewBox="0 0 42 42" fill="none" xmlns="http://www.w3.org/2000/svg">
<rect x="2" y="2" width="38" height="38" rx="19" fill="white" stroke="black" stroke-width="4"/>
<ellipse cx="31.2108" cy="17.1429" rx="2.21077" ry="2.28571" fill="#FFC700"/>
<ellipse cx="11.7822" cy="16" rx="2.21077" ry="2.28571" fill="#FFC700"/>
<ellipse cx="21.4032" cy="13.4857" rx="2.21077" ry="2.28571" fill="#FFC700"/>
<path d="M33.5714 16.9953C33.5718 16.5596 33.4643 16.1298 33.2576 15.7407C33.0508 15.3515 32.7505 15.0139 32.381 14.755C32.0115 14.4961 31.583 14.3231 31.1301 14.25C30.6772 14.1769 30.2125 14.2058 29.7735 14.3343C29.3345 14.4627 28.9335 14.6872 28.6027 14.9896C28.2719 15.292 28.0206 15.6638 27.8691 16.0752C27.7176 16.4866 27.67 16.926 27.7303 17.358C27.7906 17.79 27.957 18.2025 28.2162 18.5623L25.4097 21.8414L22.8861 16.3395C23.3463 15.9721 23.6763 15.4793 23.8314 14.9279C23.9865 14.3766 23.959 13.7934 23.7529 13.2573C23.5467 12.7212 23.1717 12.2583 22.6788 11.9311C22.1859 11.604 21.5988 11.4286 20.9973 11.4286C20.3957 11.4286 19.8086 11.604 19.3157 11.9311C18.8228 12.2583 18.4478 12.7212 18.2417 13.2573C18.0355 13.7934 18.0081 14.3766 18.1631 14.9279C18.3182 15.4793 18.6482 15.9721 19.1085 16.3395L16.5911 21.8385L13.7846 18.5594C14.1451 18.0583 14.3231 17.4592 14.2915 16.8533C14.2598 16.2474 14.0203 15.668 13.6093 15.2031C13.1984 14.7383 12.6385 14.4137 12.015 14.2786C11.3916 14.1435 10.7386 14.2054 10.1556 14.4548C9.57266 14.7043 9.09162 15.1276 8.78576 15.6604C8.47991 16.1932 8.36601 16.8061 8.46141 17.406C8.55681 18.0058 8.85627 18.5597 9.3142 18.9831C9.77213 19.4066 10.3634 19.6765 10.998 19.7518L12.5149 28.3857C12.5802 28.7569 12.7821 29.0942 13.0848 29.3374C13.3875 29.5807 13.7713 29.7142 14.168 29.7143H27.8328C28.2295 29.7142 28.6133 29.5807 28.916 29.3374C29.2187 29.0942 29.4206 28.7569 29.4859 28.3857L31.0017 19.7557C31.7111 19.6717 32.3637 19.3448 32.8369 18.8365C33.3101 18.3282 33.5713 17.6734 33.5714 16.9953ZM21.0004 13.0207C21.249 13.0207 21.4921 13.0906 21.6988 13.2216C21.9055 13.3526 22.0667 13.5389 22.1618 13.7567C22.257 13.9746 22.2819 14.2144 22.2333 14.4457C22.1848 14.677 22.0651 14.8894 21.8893 15.0562C21.7135 15.223 21.4895 15.3365 21.2456 15.3825C21.0018 15.4286 20.749 15.4049 20.5193 15.3147C20.2896 15.2244 20.0933 15.0716 19.9552 14.8755C19.817 14.6794 19.7433 14.4489 19.7433 14.2131C19.7433 13.8968 19.8757 13.5935 20.1115 13.3699C20.3472 13.1463 20.667 13.0207 21.0004 13.0207ZM10.1055 16.9953C10.1055 16.7595 10.1792 16.529 10.3174 16.3329C10.4555 16.1368 10.6518 15.9839 10.8815 15.8937C11.1112 15.8034 11.364 15.7798 11.6078 15.8258C11.8517 15.8718 12.0757 15.9854 12.2515 16.1522C12.4273 16.3189 12.547 16.5314 12.5955 16.7627C12.6441 16.994 12.6192 17.2338 12.524 17.4516C12.4289 17.6695 12.2677 17.8557 12.061 17.9868C11.8543 18.1178 11.6112 18.1877 11.3626 18.1877C11.0292 18.1877 10.7094 18.0621 10.4737 17.8385C10.2379 17.6149 10.1055 17.3116 10.1055 16.9953ZM30.6382 18.1877C30.3896 18.1877 30.1465 18.1178 29.9398 17.9868C29.7331 17.8557 29.5719 17.6695 29.4768 17.4516C29.3816 17.2338 29.3567 16.994 29.4053 16.7627C29.4538 16.5314 29.5735 16.3189 29.7493 16.1522C29.9251 15.9854 30.1491 15.8718 30.393 15.8258C30.6368 15.7798 30.8896 15.8034 31.1193 15.8937C31.349 15.9839 31.5453 16.1368 31.6834 16.3329C31.8216 16.529 31.8953 16.7595 31.8953 16.9953C31.8953 17.3116 31.7629 17.6149 31.5271 17.8385C31.2914 18.0621 30.9716 18.1877 30.6382 18.1877Z" fill="#FFC700"/>
<path d="M34.5625 16.75C34.5632 16.2156 34.4416 15.6882 34.2069 15.2082C33.9722 14.7281 33.6307 14.3082 33.2085 13.9805C32.7864 13.6529 32.2949 13.4263 31.7716 13.318C31.2483 13.2097 30.7072 13.2227 30.1897 13.356C29.6723 13.4892 29.1922 13.7392 28.7863 14.0867C28.3804 14.4342 28.0594 14.8701 27.848 15.3609C27.6366 15.8516 27.5404 16.3843 27.5668 16.918C27.5931 17.4517 27.7413 17.9723 28 18.4398L25.7185 21.2464L23.496 16.1375C23.9795 15.6457 24.3069 15.0219 24.4371 14.3447C24.5673 13.6674 24.4945 12.9667 24.2278 12.3307C23.9612 11.6946 23.5126 11.1515 22.9383 10.7696C22.364 10.3876 21.6897 10.1839 21 10.1839C20.3103 10.1839 19.636 10.3876 19.0618 10.7696C18.4875 11.1515 18.0389 11.6946 17.7722 12.3307C17.5055 12.9667 17.4328 13.6674 17.563 14.3447C17.6932 15.0219 18.0206 15.6457 18.5041 16.1375L16.2827 21.2464L14 18.4398C14.3547 17.7965 14.498 17.0579 14.4095 16.3286C14.3211 15.5993 14.0054 14.9163 13.5072 14.3764C13.009 13.8365 12.3536 13.4671 11.6337 13.3204C10.9139 13.1738 10.1662 13.2573 9.49645 13.5593C8.82674 13.8612 8.26902 14.3662 7.90229 15.0028C7.53557 15.6393 7.37843 16.3751 7.45315 17.106C7.52787 17.8368 7.83065 18.5256 8.31861 19.0747C8.80656 19.6239 9.45494 20.0056 10.1719 20.1658L11.7031 29.3598C11.7872 29.8721 12.0513 30.3376 12.4479 30.6726C12.8444 31.0076 13.3475 31.1902 13.8666 31.1875H28.1335C28.6526 31.1902 29.1556 31.0076 29.5522 30.6726C29.9488 30.3376 30.2128 29.8721 30.2969 29.3598L31.8281 20.1658C32.6037 19.9909 33.2968 19.5576 33.7937 18.9369C34.2905 18.3162 34.5617 17.5451 34.5625 16.75ZM31.0625 15.875C31.2356 15.875 31.4048 15.9263 31.5486 16.0225C31.6925 16.1186 31.8047 16.2553 31.8709 16.4151C31.9371 16.575 31.9545 16.751 31.9207 16.9207C31.8869 17.0904 31.8036 17.2463 31.6812 17.3687C31.5589 17.4911 31.403 17.5744 31.2332 17.6082C31.0635 17.6419 30.8876 17.6246 30.7277 17.5584C30.5678 17.4922 30.4311 17.38 30.335 17.2361C30.2388 17.0922 30.1875 16.9231 30.1875 16.75C30.1875 16.5179 30.2797 16.2954 30.4438 16.1313C30.6079 15.9672 30.8305 15.875 31.0625 15.875ZM21 12.8125C21.1731 12.8125 21.3423 12.8638 21.4861 12.96C21.63 13.0561 21.7422 13.1928 21.8084 13.3526C21.8746 13.5125 21.892 13.6885 21.8582 13.8582C21.8244 14.0279 21.7411 14.1838 21.6187 14.3062C21.4964 14.4286 21.3405 14.5119 21.1707 14.5457C21.001 14.5794 20.8251 14.5621 20.6652 14.4959C20.5053 14.4297 20.3686 14.3175 20.2725 14.1736C20.1763 14.0297 20.125 13.8606 20.125 13.6875C20.125 13.4554 20.2172 13.2329 20.3813 13.0688C20.5454 12.9047 20.768 12.8125 21 12.8125ZM10.9375 15.875C11.1106 15.875 11.2798 15.9263 11.4236 16.0225C11.5675 16.1186 11.6797 16.2553 11.7459 16.4151C11.8121 16.575 11.8295 16.751 11.7957 16.9207C11.7619 17.0904 11.6786 17.2463 11.5562 17.3687C11.4339 17.4911 11.278 17.5744 11.1082 17.6082C10.9385 17.6419 10.7626 17.6246 10.6027 17.5584C10.4428 17.4922 10.3061 17.38 10.21 17.2361C10.1138 17.0922 10.0625 16.9231 10.0625 16.75C10.0625 16.5179 10.1547 16.2954 10.3188 16.1313C10.4829 15.9672 10.7055 15.875 10.9375 15.875ZM27.7627 28.5625H14.2374L13.0474 21.4291L15.6067 24.578C15.7298 24.7293 15.885 24.8514 16.0612 24.9352C16.2373 25.019 16.43 25.0625 16.625 25.0625C16.6846 25.0623 16.7442 25.0583 16.8033 25.0505C17.0264 25.0198 17.2379 24.9323 17.4173 24.7963C17.5968 24.6603 17.7383 24.4804 17.8281 24.2739L20.9103 17.1875H21H21.0897L24.1719 24.2739C24.2618 24.4804 24.4032 24.6603 24.5827 24.7963C24.7622 24.9323 24.9736 25.0198 25.1967 25.0505C25.2559 25.0583 25.3154 25.0623 25.375 25.0625C25.5701 25.0625 25.7627 25.019 25.9389 24.9352C26.115 24.8514 26.2702 24.7293 26.3933 24.578L28.9527 21.4291L27.7627 28.5625Z" fill="black"/>
</svg>
